<?xml version="1.0"?>
<!-- Generated by SVGo and Plotinum VG -->
<svg width="300pt" height="300pt" viewBox="0 0 300 300"
	xmlns="http://www.w3.org/2000/svg"
	xmlns:xlink="http://www.w3.org/1999/xlink">
<g transform="scale(1, -1) translate(0, -300)">
<path d="M0,0L300,0L300,300L0,300Z" style="fill:#FFFFFF" />
<text x="25.076" y="-3.252" transform="scale(1, -1)"
	style="font-family:Times;font-weight:normal;font-style:normal;font-size:10px">-5</text>
<text x="159.79" y="-3.252" transform="scale(1, -1)"
	style="font-family:Times;font-weight:normal;font-style:normal;font-size:10px">0</text>
<text x="292.84" y="-3.252" transform="scale(1, -1)"
	style="font-family:Times;font-weight:normal;font-style:normal;font-size:10px">5</text>
<path d="M29.241,11.074L29.241,19.074" style="fill:none;stroke:#000000;stroke-width:0.5" />
<path d="M162.29,11.074L162.29,19.074" style="fill:none;stroke:#000000;stroke-width:0.5" />
<path d="M295.34,11.074L295.34,19.074" style="fill:none;stroke:#000000;stroke-width:0.5" />
<path d="M55.851,15.074L55.851,19.074" style="fill:none;stroke:#000000;stroke-width:0.5" />
<path d="M82.461,15.074L82.461,19.074" style="fill:none;stroke:#000000;stroke-width:0.5" />
<path d="M109.07,15.074L109.07,19.074" style="fill:none;stroke:#000000;stroke-width:0.5" />
<path d="M135.68,15.074L135.68,19.074" style="fill:none;stroke:#000000;stroke-width:0.5" />
<path d="M188.9,15.074L188.9,19.074" style="fill:none;stroke:#000000;stroke-width:0.5" />
<path d="M215.51,15.074L215.51,19.074" style="fill:none;stroke:#000000;stroke-width:0.5" />
<path d="M242.12,15.074L242.12,19.074" style="fill:none;stroke:#000000;stroke-width:0.5" />
<path d="M268.73,15.074L268.73,19.074" style="fill:none;stroke:#000000;stroke-width:0.5" />
<path d="M26.58,19.074L298,19.074" style="fill:none;stroke:#000000;stroke-width:0.5" />
<text x="0" y="-24.039" transform="scale(1, -1)"
	style="font-family:Times;font-weight:normal;font-style:normal;font-size:10px">-5</text>
<text x="3.3301" y="-159.4" transform="scale(1, -1)"
	style="font-family:Times;font-weight:normal;font-style:normal;font-size:10px">0</text>
<text x="3.3301" y="-294.77" transform="scale(1, -1)"
	style="font-family:Times;font-weight:normal;font-style:normal;font-size:10px">5</text>
<path d="M10.83,26.324L18.83,26.324" style="fill:none;stroke:#000000;stroke-width:0.5" />
<path d="M10.83,161.69L18.83,161.69" style="fill:none;stroke:#000000;stroke-width:0.5" />
<path d="M10.83,297.05L18.83,297.05" style="fill:none;stroke:#000000;stroke-width:0.5" />
<path d="M14.83,53.397L18.83,53.397" style="fill:none;stroke:#000000;stroke-width:0.5" />
<path d="M14.83,80.47L18.83,80.47" style="fill:none;stroke:#000000;stroke-width:0.5" />
<path d="M14.83,107.54L18.83,107.54" style="fill:none;stroke:#000000;stroke-width:0.5" />
<path d="M14.83,134.61L18.83,134.61" style="fill:none;stroke:#000000;stroke-width:0.5" />
<path d="M14.83,188.76L18.83,188.76" style="fill:none;stroke:#000000;stroke-width:0.5" />
<path d="M14.83,215.83L18.83,215.83" style="fill:none;stroke:#000000;stroke-width:0.5" />
<path d="M14.83,242.91L18.83,242.91" style="fill:none;stroke:#000000;stroke-width:0.5" />
<path d="M14.83,269.98L18.83,269.98" style="fill:none;stroke:#000000;stroke-width:0.5" />
<path d="M18.83,26.324L18.83,297.05" style="fill:none;stroke:#000000;stroke-width:0.5" />
<path d="M217.51,188.76A2,2 0 1 1 213.51,188.76A2,2 0 1 1 217.51,188.76Z" style="fill:none;stroke:#FF0080;stroke-width:0.5" />
<path d="M270.73,242.91A2,2 0 1 1 266.73,242.91A2,2 0 1 1 270.73,242.91Z" style="fill:none;stroke:#FF0080;stroke-width:0.5" />
<path d="M244.12,218.54A2,2 0 1 1 240.12,218.54A2,2 0 1 1 244.12,218.54Z" style="fill:none;stroke:#FF0080;stroke-width:0.5" />
<path d="M276.05,269.98A2,2 0 1 1 272.05,269.98A2,2 0 1 1 276.05,269.98Z" style="fill:none;stroke:#FF0080;stroke-width:0.5" />
<path d="M300,297.05A2,2 0 1 1 296,297.05A2,2 0 1 1 300,297.05Z" style="fill:none;stroke:#FF0080;stroke-width:0.5" />
<path d="M28.58,26.324A2,2 0 1 1 24.58,26.324A2,2 0 1 1 28.58,26.324Z" style="fill:none;stroke:#FF0080;stroke-width:0.5" />
<path d="M30.085,26.324L32.119,28.283L37.658,33.616L43.198,38.949L48.737,44.282L54.276,49.615L59.815,54.948L65.354,60.28L70.894,65.613L76.433,70.946L81.972,76.279L87.511,81.612L93.05,86.945L98.589,92.278L104.13,97.611L109.67,102.94L115.21,108.28L120.75,113.61L126.29,118.94L131.82,124.28L137.36,129.61L142.9,134.94L148.44,140.27L153.98,145.61L159.52,150.94L165.06,156.27L170.6,161.61L176.14,166.94L181.68,172.27L187.22,177.6L192.76,182.94L198.29,188.27L203.83,193.6L209.37,198.94L214.91,204.27L220.45,209.6L225.99,214.93L231.53,220.27L237.07,225.6L242.61,230.93L248.15,236.27L253.69,241.6L259.23,246.93L264.76,252.27L270.3,257.6L275.84,262.93L281.38,268.26L286.92,273.6L292.46,278.93L298,284.26" style="fill:none;stroke:#0000FF" />
</g>
</svg>
